Genre:Thriller 
Language:English
IMDb:http://www.imdb.com/title/tt1274273/
Source:DvD

General
Complete name :The.Last.Seven.2010.DVDRip.Xvid.Feel-Free
Format : AVI
Format/Info : Audio Video Interleave
File size : 1.02 GiB
Duration : 1h 24mn
Overall bit rate : 1 745 Kbps
Writing library : VirtualDub build 32817/release
Video #0
Codec ID : XVID
Codec ID/Hint : XviD
Duration : 1h 24mn
Bit rate : 1 479 Kbps
Width : 688 pixels
Height : 288 pixels
Display aspect ratio : 2.35:1
Frame rate : 25.000 fps
Resolution : 24 bits
Colorimetry : 4:2:0
Scan type : Progressive
Bits/(Pixel*Frame) : 0.299
Stream size : 889 MiB (85%)
Writing library : XviD 1.2.1 (UTC 2008-12-04)
Audio #1
ID : 1
Format : AC-3
Format/Info : Audio Coding 3
Codec ID : 2000
Duration : 1h 24mn
Bit rate mode : Constant
Bit rate : 256 Kbps
Channel(s) : 2 channels
Channel positions : L R
Sampling rate : 48.0 KHz
Stream size : 154 MiB (15%)
Alignment : Split accross interleaves
Interleave, duration : 40 ms (1.00 video frame)
Interleave, preload duration : 500 ms

Plot
A watch stops. A man awakes. He remembers nothing. And London is completely deserted. Starring Tamer Hassan, Danny Dyer and Simon Phillips ? London?s last survivors must fight to stay alive as events become increasingly more dangerous and disturbing, whilst trying to piece together their memories of a cataclysmic event on an epic scale. Struggling to make sense of an impossible situation and stay alive against all the odds, this is the mission of THE LAST SEVEN




================================== 
http://thepiratebay.org/user/hiest
==================================




Screenshots:
 
http://www.starshare.ro/bitbucket/The.Last.Seven.2010.DVDRip.Xvid.Feel-Free.avi_thumbs_%5B2010.08.31_16.36.10%5D.jpg
 
http://www.starshare.ro/bitbucket/The.Last.Seven.2010.DVDRip.Xvid.Feel-Free.avi_snapshot_01.14.06_%5B2010.08.31_16.36.00%5D.jpg
 
http://www.starshare.ro/bitbucket/The.Last.Seven.2010.DVDRip.Xvid.Feel-Free.avi_snapshot_00.27.11_%5B2010.08.31_16.35.50%5D.jpg
 
http://www.starshare.ro/bitbucket/The.Last.Seven.2010.DVDRip.Xvid.Feel-Free.avi_snapshot_01.13.21_%5B2010.08.31_16.35.54%5D.jpg
 
http://www.starshare.ro/bitbucket/The.Last.Seven.2010.DVDRip.Xvid.Feel-Free.avi_snapshot_01.13.36_%5B2010.08.31_16.35.56%5D.jpg
 
http://www.starshare.ro/bitbucket/The.Last.Seven.2010.DVDRip.Xvid.Feel-Free.avi_snapshot_01.17.27_%5B2010.08.31_16.36.03%5D.jpg